<svg id="Layer_1" data-name="Layer 1" xmlns="http://www.w3.org/2000/svg" viewBox="0 0 62.7 59.89"><defs><style>.cls-1{fill:none;stroke:#3b3b3b;stroke-miterlimit:10;stroke-width:4px;}</style></defs><path class="cls-1" d="M59.7,56.9c-16.8,4.1-34.24-1-45.15-13.28C2,29.5,3.61,12.07,3.93,9.09a15.22,15.22,0,0,1,4-4,15.49,15.49,0,0,1,8-2.66,14.62,14.62,0,0,1,6.64,6.64,14.61,14.61,0,0,1,1.33,8l-5.32,8a32.35,32.35,0,0,0,10.63,14.6A31.65,31.65,0,0,0,39.78,45l8-6.64A15.48,15.48,0,0,1,61,43.62,12.2,12.2,0,0,1,59.7,56.9Z" transform="translate(-1.69 -0.41)"/></svg>
